# xmcd
#
# Track frame offsets:
#	150
#	24029
#	41438
#	59569
#	75337
#	91120
#	103982
#	130972
#	148043
#	160550
#	177134
#	198353
#
# Disc length: 2942 seconds
# Revision: 0
# Processed by: cddbd v1.4PL0 Copyright (c) Steve Scherf et al.
# Submitted via: cdrLabel 7.0
#
DISCID=8f0b7c0c
DTITLE=J.J. Band - Good day for the blues
DYEAR=2003
DGENRE=
TTITLE0=Good day for the blues
TTITLE1=Just can't loose
TTITLE2=When you love someone
TTITLE3=Kiedy byem maym chopcem
TTITLE4=Kansas city
TTITLE5=Feelin' alright
TTITLE6=Wonderful tonight
TTITLE7=Lucky guy
TTITLE8=Boogie woogie papa
TTITLE9=Feel like a man
TTITLE10=Pretty woman
TTITLE11=Guitar and Harp
EXTD=
EXTT0=
EXTT1=
EXTT2=
EXTT3=
EXTT4=
EXTT5=
EXTT6=
EXTT7=
EXTT8=
EXTT9=
EXTT10=
EXTT11=
PLAYORDER=
